<?xml version="1.0" encoding="utf-8"?>
<!-- Generator: Adobe Illustrator 19.1.0, SVG Export Plug-In . SVG Version: 6.00 Build 0)  -->
<svg version="1.1" id="Layer_1" xmlns="http://www.w3.org/2000/svg" xmlns:xlink="http://www.w3.org/1999/xlink" x="0px" y="0px"
	 viewBox="0 0 612 792" style="enable-background:new 0 0 612 792;" xml:space="preserve">
<style type="text/css">
	.st0{fill:none;stroke:#FFFFFF;stroke-width:3.0;}
</style>
<g>
	<title>Layer 1</title>
	<path id="svg_2" class="st0" d="M52,733.4L37,19.3L202.2,7.6l60.7,0.9v20.5l127.8,1.4l0.5-6.8l121.9-12.3h62.1l-7.8,298.9
		l-32.9,27.8l32.4,37l-8.7,287.1L452.4,784l-70.3-8.2v-28.3l-267.5-32.9v27.8L52,733.4z"/>
	<path id="svg_3" class="st0" d="M120.5,119.5l224.8,5.9l31.7,34.9l-3.1,168.3l-23.7,21.6l-225.8-12.5L120.5,119.5z"/>
	<path id="svg_5" class="st0" d="M121.5,433.1l3.1,204.6l223.1,25.4l27.2-25.1l1.7-150.6l-32.8-37.3L121.5,433.1z"/>
	<line id="svg_6" class="st0" x1="36.8" y1="18.7" x2="103.4" y2="18.7"/>
	<line id="svg_7" class="st0" x1="103.4" y1="20.5" x2="103.4" y2="44.2"/>
	<line id="svg_8" class="st0" x1="104.1" y1="44.2" x2="390.6" y2="48.7"/>
	<line id="svg_9" class="st0" x1="390.6" y1="48.7" x2="390.6" y2="30.6"/>
	<line id="svg_10" class="st0" x1="102.7" y1="44.2" x2="263.4" y2="29.2"/>
	<line id="svg_11" class="st0" x1="275.9" y1="123.3" x2="275.9" y2="281.9"/>
	<line id="svg_12" class="st0" x1="275.6" y1="281.9" x2="373.2" y2="287.5"/>
	<line id="svg_13" class="st0" x1="123.6" y1="337.3" x2="275.2" y2="281.2"/>
	<line id="svg_14" class="st0" x1="273.8" y1="444.6" x2="273.8" y2="540.8"/>
	<line id="svg_15" class="st0" x1="274.2" y1="540.8" x2="374.9" y2="550.6"/>
	<line id="svg_16" class="st0" x1="124" y1="637.4" x2="274.2" y2="540.1"/>
	<line id="svg_17" class="st0" x1="114.2" y1="743.3" x2="149.1" y2="717.9"/>
	<line id="svg_18" class="st0" x1="451.6" y1="785.1" x2="457.2" y2="450.9"/>
	<line id="svg_19" class="st0" x1="458.9" y1="450.2" x2="420.9" y2="408.7"/>
	<line id="svg_20" class="st0" x1="420.9" y1="408.7" x2="459.6" y2="376.3"/>
	<line id="svg_22" class="st0" x1="391" y1="22.9" x2="464.1" y2="22.9"/>
	<line id="svg_23" class="st0" x1="463.6" y1="24.3" x2="458.8" y2="374.4"/>
	<line id="svg_24" class="st0" x1="574.5" y1="11.7" x2="461.7" y2="24.3"/>
	<line id="svg_25" class="st0" x1="568.2" y1="310.5" x2="458.3" y2="374.4"/>
	<line id="svg_26" class="st0" x1="458.8" y1="449.9" x2="568.2" y2="374.4"/>
	<line id="svg_27" class="st0" x1="421.5" y1="409.3" x2="535.8" y2="338.6"/>
</g>
<line class="st0" x1="103.4" y1="20.5" x2="259.7" y2="8.5"/>
</svg>
